<?xml version="1.0" encoding="UTF-8" standalone="no"?>
<svg width="115px" height="35px" viewBox="0 0 115 35" version="1.1" xmlns="http://www.w3.org/2000/svg" xmlns:xlink="http://www.w3.org/1999/xlink" xmlns:sketch="http://www.bohemiancoding.com/sketch/ns">
    <!-- Generator: Sketch 3.0.4 (8053) - http://www.bohemiancoding.com/sketch -->
    <title>Pebble_Logo</title>
    <desc>Created with Sketch.</desc>
    <defs></defs>
    <g id="Page-1" stroke="none" stroke-width="1" fill="none" fill-rule="evenodd" sketch:type="MSPage">
        <g id="Pebble_Logo" sketch:type="MSLayerGroup" transform="translate(0.000000, 1.000000)" fill="#000000">
            <g id="Group" sketch:type="MSShapeGroup">
                <path d="M0.1,8.2 L2,8.2 L2,12.5 C3.7,10 6.1,7.7 10,7.7 C14.7,7.7 19.4,11.5 19.4,17.8 L19.4,17.9 C19.4,24.2 14.6,28.1 10,28.1 C6.1,28.1 3.6,25.9 2,23.5 L2,33.8 L0.1,33.8 L0.1,8.2 L0.1,8.2 Z M17.3,18 L17.3,18 C17.3,12.8 13.8,9.6 9.7,9.6 C5.7,9.6 1.8,13 1.8,17.9 L1.8,18 C1.8,23 5.7,26.3 9.7,26.3 C13.9,26.2 17.3,23.2 17.3,18 L17.3,18 Z" id="Shape"></path>
                <path d="M46.5,23.4 L46.5,27.6 L44.6,27.6 L44.6,-0.2 L46.5,-0.2 L46.5,12.5 C48.2,10 50.6,7.7 54.5,7.7 C59.2,7.7 63.9,11.5 63.9,17.8 L63.9,17.9 C63.9,24.2 59.1,28.1 54.5,28.1 C50.6,28 48.1,25.8 46.5,23.4 L46.5,23.4 Z M61.9,18 L61.9,18 C61.9,12.8 58.4,9.6 54.3,9.6 C50.3,9.6 46.4,13 46.4,17.9 L46.4,18 C46.4,23 50.3,26.3 54.3,26.3 C58.5,26.2 61.9,23.2 61.9,18 L61.9,18 Z" id="Shape"></path>
                <path d="M69.5,23.4 L69.5,27.6 L67.6,27.6 L67.6,-0.2 L69.5,-0.2 L69.5,12.5 C71.2,10 73.6,7.7 77.5,7.7 C82.2,7.7 86.9,11.5 86.9,17.8 L86.9,17.9 C86.9,24.2 82.1,28.1 77.5,28.1 C73.6,28 71.1,25.8 69.5,23.4 L69.5,23.4 Z M84.9,18 L84.9,18 C84.9,12.8 81.4,9.6 77.3,9.6 C73.3,9.6 69.4,13 69.4,17.9 L69.4,18 C69.4,23 73.3,26.3 77.3,26.3 C81.5,26.2 84.9,23.2 84.9,18 L84.9,18 Z" id="Shape"></path>
                <path d="M90.6,-0.2 L92.5,-0.2 L92.5,27.5 L90.6,27.5 L90.6,-0.2 L90.6,-0.2 Z" id="Shape"></path>
                <path d="M25.2,19.9 C26,24 29.2,26.3 32.6,26.3 C35.6,26.3 37.7,25 39.3,23.3 L40.6,24.4 C38.6,26.5 36.3,28.1 32.6,28.1 C27.4,28 23,24 23,17.9 L23,17.8 C23,12.2 27,7.7 32.2,7.7 C36.6,7.7 39.7,10.6 40.7,14.8 C40.8,15.1 40.8,15.3 40.9,15.6 L25.2,19.9 L25.2,19.9 Z M38.7,14.5 C37.8,11.7 35.7,9.4 32.2,9.4 C28.4,9.4 25.4,12.6 25.1,16.9 L25.1,18.1 L38.7,14.5 L38.7,14.5 Z" id="Shape"></path>
                <path d="M98.3,19.9 C99.1,24 102.3,26.3 105.7,26.3 C108.7,26.3 110.8,25 112.4,23.3 L113.7,24.4 C111.7,26.5 109.4,28.1 105.7,28.1 C100.6,28.1 96.2,24 96.2,18 L96.2,17.9 C96.2,12.3 100.2,7.8 105.4,7.8 C109.8,7.8 112.9,10.7 113.9,14.9 C114,15.2 114,15.4 114.1,15.7 L98.3,19.9 L98.3,19.9 Z M111.8,14.5 C110.9,11.7 108.8,9.4 105.3,9.4 C101.5,9.4 98.5,12.6 98.2,16.9 L98.2,18.1 L111.8,14.5 L111.8,14.5 Z" id="Shape"></path>
            </g>
        </g>
    </g>
</svg>