<?xml version="1.0" encoding="utf-8"?>
<!-- Generator: Adobe Illustrator 18.1.1, SVG Export Plug-In . SVG Version: 6.00 Build 0)  -->
<svg version="1.1" xmlns="http://www.w3.org/2000/svg" xmlns:xlink="http://www.w3.org/1999/xlink" x="0px" y="0px"
	 viewBox="0 0 181.1 100" enable-background="new 0 0 181.1 100" xml:space="preserve">
<g id="Loblaw_Digital">
</g>
<g id="Phoenix">
</g>
<g id="Magnet_Forensics_1_">
</g>
<g id="Bloomberg">
</g>
<g id="Wish">
</g>
<g id="lani">
</g>
<g id="Yelp">
</g>
<g id="Mozilla">
</g>
<g id="Microsoft">
</g>
<g id="Facebook">
	<g id="Facebook_1_">
		<rect x="0" y="13.8" fill="#3765A3" width="181.1" height="67.4"/>
		<g>
			<path fill="#FFFFFF" d="M75.7,42c-6.7,0-8.6,3.5-8.6,8V54c0,5,2.7,8.4,9.2,8.4c3,0,4.5-0.1,7.6-0.8v-5c-3.2,0.6-4.6,0.7-7.1,0.7
				c-2.8,0-3.5-0.6-3.5-2.9V54h11.2v-4.1C84.3,45.5,82.4,42,75.7,42 M78.2,49.9h-5.1v-0.8c0-1.4,0.4-2.5,2.5-2.5
				c2.1,0,2.5,1.1,2.5,2.5V49.9z M114.8,42c-7.2,0-8.9,4-8.9,8.2v4c0,4.1,1.8,8.2,8.9,8.2c7.2,0,8.8-4,8.8-8.2v-4
				C123.6,46.1,121.9,42,114.8,42 M117.5,54.8c0,1.4-0.8,2.5-2.8,2.5c-2.1,0-2.8-1.1-2.8-2.5v-5.2c0-1.4,0.8-2.5,2.8-2.5
				c2.1,0,2.8,1.1,2.8,2.5V54.8z M134.3,42c-7.2,0-8.9,4-8.9,8.2v4c0,4.1,1.8,8.2,8.9,8.2c7.2,0,8.8-4,8.8-8.2v-4
				C143.1,46.1,141.5,42,134.3,42 M137.1,54.8c0,1.4-0.8,2.5-2.8,2.5c-2.1,0-2.8-1.1-2.8-2.5v-5.2c0-1.4,0.8-2.5,2.8-2.5
				c2.1,0,2.8,1.1,2.8,2.5V54.8z M49.9,50.4v3.5c0,5,2.7,8.4,9.2,8.4c1.5,0,3.3-0.1,6.1-0.8v-5c-3.2,0.6-4.1,0.7-5.6,0.7
				c-2.8,0-3.5-0.6-3.5-2.9v-4.4c0-2.3,0.8-2.9,3.5-2.9c1.5,0,2.4,0.1,5.6,0.7v-5c-2.8-0.7-4.5-0.8-6.1-0.8
				C52.6,42,49.9,45.4,49.9,50.4 M31.7,42.3h-4.6v-2.5c0-1.3,0.1-2,2-2h2.5v-5.1h-4c-4.9,0-6.6,2.4-6.6,6.6v3.1h-3.1v5.1H21v14.8
				h6.1V47.4h4.1L31.7,42.3z M39.3,42.3h-5.7l-0.4,5.1h5.2c3.2,0,3.4,0.7,3.4,2.7v0.9h-4.2c-4.2,0-6.4,1.4-6.4,5.5c0,3.4,2,6,5.7,6
				c1.3,0,3.4-0.2,5.7-1.5l0.2,1.3h5.1V50.1C47.9,44.5,46.4,42.3,39.3,42.3 M41.7,57.2c-0.9,0.4-1.7,0.8-2.9,0.8
				c-1.2,0-1.7-0.6-1.7-1.7c0-1.1,0.6-1.3,1.9-1.3h2.8v2.2H41.7z M97,42c-1.5,0-3.3,0.2-4.5,0.8v-9.6l-6.1,1v27.5
				c3.3,0.6,5.1,0.8,8.1,0.8c8.3,0,9.7-3.5,9.7-8.3v-5C104.1,44.8,103,42,97,42 M98,54.1c0,1.9-0.4,3.3-3.4,3.3
				c-0.8,0-1.3,0-2.2-0.1V48c0.9-0.4,1.8-0.8,3.1-0.8c2.1,0,2.5,1.1,2.5,2.5V54.1z M163.2,42.3h-6.6l-5.6,8.8v-18l-6.1,1v27.9h6.1
				v-9.3l5.6,9.3h6.6l-6.1-10.2L163.2,42.3z"/>
		</g>
	</g>
</g>
<g id="Kik_1_">
</g>
<g id="D2L">
</g>
<g id="Linode">
</g>
<g id="Braintree">
</g>
<g id="Velocity">
</g>
<g id="citi">
</g>
<g id="Course_Hero">
</g>
<g id="square">
</g>
<g id="Capco">
</g>
</svg>
