<?xml version="1.0" encoding="utf-8"?>
<!-- Generator: Adobe Illustrator 16.0.0, SVG Export Plug-In . SVG Version: 6.00 Build 0)  -->
<!DOCTYPE svg PUBLIC "-//W3C//DTD SVG 1.1//EN" "http://www.w3.org/Graphics/SVG/1.1/DTD/svg11.dtd">
<svg version="1.1" id="Layer_1" xmlns="http://www.w3.org/2000/svg" xmlns:xlink="http://www.w3.org/1999/xlink" x="0px" y="0px"
	 width="1440px" height="694.23px" viewBox="0 0 1440 694.23" enable-background="new 0 0 1440 694.23" xml:space="preserve">
<rect x="468.839" y="110.373" transform="matrix(0.7071 -0.7071 0.7071 0.7071 51.6017 382.3603)" opacity="0.4" fill="#4CAEDE" enable-background="new    " width="37.035" height="37.035"/>
<rect x="510.406" y="134.48" transform="matrix(0.7071 -0.7071 0.7071 0.7071 41.6221 431.1685)" opacity="0.7" fill="#4CAEDE" enable-background="new    " width="61.727" height="61.726"/>
<rect x="337.445" y="138.848" transform="matrix(0.7071 -0.7071 0.7071 0.7071 -32.5836 359.518)" fill="#4CAEDE" width="160.486" height="160.487"/>
<rect x="552.268" y="40.514" transform="matrix(0.7071 -0.7071 0.7071 0.7071 127.9887 414.7179)" opacity="0.8" fill="#4CAEDE" enable-background="new    " width="24.69" height="24.691"/>
<rect x="636.111" y="20.466" transform="matrix(0.7071 -0.7071 0.7071 0.7071 164.1705 474.3103)" opacity="0.4" fill="#4CAEDE" enable-background="new    " width="37.035" height="37.035"/>
<rect x="394.631" y="346.561" transform="matrix(0.7071 -0.7071 0.7071 0.7071 -149.9254 429.9254)" opacity="0.8" fill="#4CAEDE" enable-background="new    " width="98.76" height="98.76"/>
<rect x="529.913" y="429.466" transform="matrix(0.7071 -0.7071 0.7071 0.7071 -153.5883 512.7986)" opacity="0.4" fill="#4CAEDE" enable-background="new    " width="24.689" height="24.691"/>
<rect x="319.574" y="297.775" transform="matrix(0.7071 -0.7071 0.7071 0.7071 -124.6282 331.7067)" opacity="0.9" fill="#4CAEDE" enable-background="new    " width="37.035" height="37.035"/>
<rect x="273.196" y="368.012" transform="matrix(0.7071 -0.7071 0.7071 0.7071 -192.9919 331.8411)" opacity="0.7" fill="#4CAEDE" enable-background="new    " width="61.727" height="61.727"/>
<rect x="174.794" y="232.093" transform="matrix(0.7071 -0.7071 0.7071 0.7071 -133.3726 240.9556)" opacity="0.6" fill="#4CAEDE" enable-background="new    " width="98.761" height="98.761"/>
<rect x="242.764" y="164.68" transform="matrix(0.7071 -0.7071 0.7071 0.7071 -50.4561 232.2433)" opacity="0.4" fill="#4CAEDE" enable-background="new    " width="24.69" height="24.692"/>
<rect x="138.215" y="215.572" transform="matrix(0.7071 -0.7071 0.7071 0.7071 -117.065 173.2216)" fill="#4CAEDE" width="24.69" height="24.691"/>
<rect x="943.413" y="327.769" transform="matrix(0.7071 -0.7071 0.7071 0.7071 11.3121 843.3337)" fill="#4CAEDE" width="160.486" height="160.486"/>
<rect x="941.238" y="185.572" transform="matrix(0.7071 -0.7071 0.7071 0.7071 124.0032 769.2798)" opacity="0.7" fill="#4CAEDE" enable-background="new    " width="98.761" height="98.761"/>
<rect x="847.953" y="441.156" transform="matrix(0.7071 -0.7071 0.7071 0.7071 -84.0352 778.1993)" opacity="0.8" fill="#4CAEDE" enable-background="new    " width="98.762" height="98.762"/>
<rect x="1049.711" y="250.398" transform="matrix(0.7071 -0.7071 0.7071 0.7071 117.6178 846.4715)" opacity="0.8" fill="#4CAEDE" enable-background="new    " width="61.726" height="61.726"/>
<rect x="1101.338" y="319.483" transform="matrix(0.7071 -0.7071 0.7071 0.7071 89.0157 890.8936)" opacity="0.4" fill="#4CAEDE" enable-background="new    " width="37.035" height="37.035"/>
<rect x="1153.541" y="397.875" transform="matrix(0.7071 -0.7071 0.7071 0.7071 43.746 963.0873)" opacity="0.7" fill="#4CAEDE" enable-background="new    " width="61.726" height="61.727"/>
<rect x="1176.885" y="252.045" transform="matrix(0.7071 -0.7071 0.7071 0.7071 146.0336 955.4008)" opacity="0.6" fill="#4CAEDE" enable-background="new    " width="98.76" height="98.762"/>
<rect x="891.118" y="179.1" transform="matrix(0.7071 -0.7071 0.7071 0.7071 126.6844 701.0825)" opacity="0.4" fill="#4CAEDE" enable-background="new    " width="37.034" height="37.034"/>
<rect x="744.985" y="592.16" transform="matrix(0.7071 -0.7071 0.7071 0.7071 -205.6334 712.5689)" opacity="0.4" fill="#4CAEDE" enable-background="new    " width="24.691" height="24.692"/>
<rect x="808.521" y="568.656" transform="matrix(0.7071 -0.7071 0.7071 0.7071 -172.9629 756.7653)" opacity="0.8" fill="#4CAEDE" enable-background="new    " width="37.035" height="37.034"/>
<text transform="matrix(1 0 0 1 849.6016 505.7432)" fill="#FFFFFF" font-family="'OpenSans'" font-size="36.1976">tech</text>
<text transform="matrix(1 0 0 1 922.1387 505.7432)" fill="#FFFFFF" font-family="'OpenSans-Bold'" font-size="36.1976">x</text>
<text transform="matrix(1 0 0 1 861.1309 473.667)" fill="#FFFFFF" font-family="'OpenSans'" font-size="12.7678">powered by</text>
</svg>
