<?xml version="1.0" encoding="utf-8"?>
<!-- Generator: Adobe Illustrator 18.1.1, SVG Export Plug-In . SVG Version: 6.00 Build 0)  -->
<svg version="1.1" xmlns="http://www.w3.org/2000/svg" xmlns:xlink="http://www.w3.org/1999/xlink" x="0px" y="0px"
	 viewBox="0 0 1440 1500" enable-background="new 0 0 1440 1500" xml:space="preserve">
<g id="Layer_2" display="none">
	<g id="NWdK6w_1_" display="inline">
		
			<image overflow="visible" width="1440" height="1097" id="NWdK6w" xlink:href="7607B975843730E3.jpg"  transform="matrix(1 0 0 1 0 403)">
		</image>
	</g>
</g>
<g id="Layer_1">
	
		<rect x="1335.7" y="771.2" transform="matrix(0.7071 -0.7071 0.7071 0.7071 -202.1512 1286.3685)" opacity="0.8" fill="#4AAEE0" width="232" height="232"/>
	
		<rect x="1242.2" y="658.2" transform="matrix(0.7071 -0.7071 0.7071 0.7071 -128.2064 1135.4767)" opacity="0.6" fill="#4AAEE0" width="128.7" height="128.7"/>
	
		<rect x="782" y="1343.3" transform="matrix(0.7071 -0.7071 0.7071 0.7071 -764.6522 1052.2063)" opacity="0.4" fill="#4AAEE0" width="211.7" height="211.7"/>
	
		<rect x="1300.4" y="531.5" transform="matrix(0.7071 -0.7071 0.7071 0.7071 -3.4874 1095.7802)" opacity="0.6" fill="#4AAEE0" width="41.1" height="41.1"/>
	
		<rect x="783" y="1192.7" transform="matrix(0.7071 -0.7071 0.7071 0.7071 -632.145 946.8096)" opacity="0.7" fill="#4AAEE0" width="87.6" height="87.6"/>
	
		<rect x="953.7" y="1136.2" transform="matrix(0.7071 -0.7071 0.7071 0.7071 -557.2974 1087.3091)" opacity="0.6" fill="#4AAEE0" width="160.4" height="160.4"/>
	
		<rect x="1049.8" y="1334.6" transform="matrix(0.7071 -0.7071 0.7071 0.7071 -655.481 1179.6121)" opacity="0.9" fill="#4AAEE0" width="92.8" height="92.8"/>
	
		<rect x="1218.4" y="1168.5" transform="matrix(0.7071 -0.7071 0.7071 0.7071 -481.3881 1232.7421)" opacity="0.4" fill="#4AAEE0" width="57.8" height="57.8"/>
	
		<rect x="1031.7" y="690.9" transform="matrix(0.7071 -0.7071 0.7071 0.7071 -216.0482 1003.5266)" opacity="0.3" fill="#4AAEE0" width="143.3" height="143.3"/>
	
		<rect x="1144.8" y="842.9" transform="matrix(0.7071 -0.7071 0.7071 0.7071 -278.9892 1100.478)" opacity="0.9" fill="#4AAEE0" width="88.3" height="88.3"/>
	
		<rect x="1170.7" y="639.6" transform="matrix(0.7071 -0.7071 0.7071 0.7071 -120.5272 1042.0474)" opacity="0.7" fill="#4AAEE0" width="53.8" height="53.8"/>
	
		<rect x="1042.4" y="586.1" transform="matrix(0.7071 -0.7071 0.7071 0.7071 -120.655 936.493)" opacity="0.8" fill="#4AAEE0" width="55.5" height="55.5"/>
	
		<rect x="1024.1" y="881.9" transform="matrix(0.7071 -0.7071 0.7071 0.7071 -335.6448 1011.449)" opacity="0.5" fill="#4AAEE0" width="58" height="58"/>
	
		<rect x="943.5" y="576" transform="matrix(0.7071 -0.7071 0.7071 0.7071 -138.2481 853.4979)" opacity="0.3" fill="#4AAEE0" width="35.3" height="35.3"/>
</g>
</svg>
