<?xml version="1.0" encoding="utf-8"?>
<!-- Generator: Adobe Illustrator 16.0.0, SVG Export Plug-In . SVG Version: 6.00 Build 0)  -->
<!DOCTYPE svg PUBLIC "-//W3C//DTD SVG 1.1//EN" "http://www.w3.org/Graphics/SVG/1.1/DTD/svg11.dtd">
<svg version="1.1" id="Layer_1" xmlns="http://www.w3.org/2000/svg" xmlns:xlink="http://www.w3.org/1999/xlink" x="0px" y="0px"
	 width="1440px" height="694.23px" viewBox="0 0 1440 694.23" enable-background="new 0 0 1440 694.23" xml:space="preserve">
<rect x="468.839" y="114.373" transform="matrix(0.7071 -0.7071 0.7071 0.7071 48.7733 383.5319)" opacity="0.4" fill="#4CAEDE" enable-background="new    " width="37.035" height="37.035"/>
<rect x="510.406" y="138.48" transform="matrix(0.7071 -0.7071 0.7071 0.7071 38.7936 432.3401)" opacity="0.7" fill="#4CAEDE" enable-background="new    " width="61.727" height="61.726"/>
<rect x="337.445" y="142.848" transform="matrix(0.7071 -0.7071 0.7071 0.7071 -35.412 360.6896)" fill="#4CAEDE" width="160.486" height="160.487"/>
<rect x="552.268" y="44.514" transform="matrix(0.7071 -0.7071 0.7071 0.7071 125.1603 415.8894)" opacity="0.8" fill="#4CAEDE" enable-background="new    " width="24.69" height="24.691"/>
<rect x="636.111" y="24.466" transform="matrix(0.7071 -0.7071 0.7071 0.7071 161.342 475.4819)" opacity="0.4" fill="#4CAEDE" enable-background="new    " width="37.035" height="37.035"/>
<rect x="394.631" y="350.561" transform="matrix(0.7071 -0.7071 0.7071 0.7071 -152.7538 431.0969)" opacity="0.8" fill="#4CAEDE" enable-background="new    " width="98.76" height="98.76"/>
<rect x="529.913" y="433.466" transform="matrix(0.7071 -0.7071 0.7071 0.7071 -156.4166 513.9701)" opacity="0.4" fill="#4CAEDE" enable-background="new    " width="24.689" height="24.691"/>
<rect x="319.574" y="301.775" transform="matrix(0.7071 -0.7071 0.7071 0.7071 -127.4567 332.8783)" opacity="0.9" fill="#4CAEDE" enable-background="new    " width="37.035" height="37.035"/>
<rect x="273.196" y="372.012" transform="matrix(0.7071 -0.7071 0.7071 0.7071 -195.8204 333.0128)" opacity="0.7" fill="#4CAEDE" enable-background="new    " width="61.727" height="61.727"/>
<rect x="174.794" y="236.093" transform="matrix(0.7071 -0.7071 0.7071 0.7071 -136.2012 242.1285)" opacity="0.6" fill="#4CAEDE" enable-background="new    " width="98.762" height="98.761"/>
<rect x="242.764" y="168.68" transform="matrix(0.7071 -0.7071 0.7071 0.7071 -53.2846 233.4149)" opacity="0.4" fill="#4CAEDE" enable-background="new    " width="24.69" height="24.692"/>
<rect x="138.215" y="219.572" transform="matrix(0.7071 -0.7071 0.7071 0.7071 -119.8935 174.3932)" fill="#4CAEDE" width="24.69" height="24.691"/>
<rect x="943.413" y="331.769" transform="matrix(0.7071 -0.7071 0.7071 0.7071 8.4838 844.5054)" fill="#4CAEDE" width="160.486" height="160.486"/>
<rect x="941.238" y="189.572" transform="matrix(0.7071 -0.7071 0.7071 0.7071 121.1748 770.4514)" opacity="0.7" fill="#4CAEDE" enable-background="new    " width="98.761" height="98.761"/>
<rect x="847.953" y="445.156" transform="matrix(0.7071 -0.7071 0.7071 0.7071 -86.8636 779.371)" opacity="0.8" fill="#4CAEDE" enable-background="new    " width="98.762" height="98.762"/>
<rect x="1049.711" y="254.398" transform="matrix(0.7071 -0.7071 0.7071 0.7071 114.7893 847.6431)" opacity="0.8" fill="#4CAEDE" enable-background="new    " width="61.726" height="61.726"/>
<rect x="1101.338" y="323.483" transform="matrix(0.7071 -0.7071 0.7071 0.7071 86.1873 892.0653)" opacity="0.4" fill="#4CAEDE" enable-background="new    " width="37.035" height="37.035"/>
<rect x="1153.541" y="401.875" transform="matrix(0.7071 -0.7071 0.7071 0.7071 40.9175 964.2589)" opacity="0.7" fill="#4CAEDE" enable-background="new    " width="61.726" height="61.727"/>
<rect x="1176.885" y="256.045" transform="matrix(0.7071 -0.7071 0.7071 0.7071 143.2051 956.5723)" opacity="0.6" fill="#4CAEDE" enable-background="new    " width="98.76" height="98.762"/>
<rect x="891.118" y="183.1" transform="matrix(0.7071 -0.7071 0.7071 0.7071 123.856 702.254)" opacity="0.4" fill="#4CAEDE" enable-background="new    " width="37.034" height="37.034"/>
<rect x="744.985" y="596.16" transform="matrix(0.7071 -0.7071 0.7071 0.7071 -208.4618 713.7405)" opacity="0.4" fill="#4CAEDE" enable-background="new    " width="24.691" height="24.692"/>
<rect x="808.521" y="572.656" transform="matrix(0.7071 -0.7071 0.7071 0.7071 -175.7913 757.9368)" opacity="0.8" fill="#4CAEDE" enable-background="new    " width="37.035" height="37.034"/>
<text transform="matrix(1 0 0 1 849.6016 509.7432)" fill="#FFFFFF" font-family="'OpenSans'" font-size="36.1976">tech</text>
<text transform="matrix(1 0 0 1 922.1387 509.7432)" fill="#FFFFFF" font-family="'OpenSans-Bold'" font-size="36.1976">x</text>
<text transform="matrix(1 0 0 1 861.1309 477.667)" fill="#FFFFFF" font-family="'OpenSans'" font-size="12.7678">powered by</text>
</svg>
