<?xml version="1.0" encoding="utf-8"?>
<!-- Generator: Adobe Illustrator 16.0.0, SVG Export Plug-In . SVG Version: 6.00 Build 0)  -->
<!DOCTYPE svg PUBLIC "-//W3C//DTD SVG 1.1//EN" "http://www.w3.org/Graphics/SVG/1.1/DTD/svg11.dtd">
<svg version="1.1" id="Layer_1" xmlns="http://www.w3.org/2000/svg" xmlns:xlink="http://www.w3.org/1999/xlink" x="0px" y="0px"
	 width="1440px" height="1440px" viewBox="0 0 1440 1440" enable-background="new 0 0 1440 1440" xml:space="preserve">
<polygon opacity="0.8" fill="#4CAEDE" enable-background="new    " points="1283.516,519.246 1473.113,329.66 1662.698,519.246 
	1473.113,708.843 "/>
<polygon opacity="0.6" fill="#4CAEDE" enable-background="new    " points="1200.221,328.925 1305.395,223.751 1410.568,328.925 
	1305.395,434.105 "/>
<polygon opacity="0.4" fill="#4CAEDE" enable-background="new    " points="929.998,1203.443 1103.007,1030.447 1276.004,1203.443 
	1103.007,1376.453 "/>
<polygon opacity="0.6" fill="#4CAEDE" enable-background="new    " points="1288.383,131.951 1321.971,98.363 1355.56,131.951 
	1321.971,165.534 "/>
<polygon opacity="0.7" fill="#4CAEDE" enable-background="new    " points="960.883,957.756 1032.468,886.16 1104.064,957.756 
	1032.468,1029.342 "/>
<polygon opacity="0.6" fill="#4CAEDE" enable-background="new    " points="1140.71,934.455 1271.783,803.382 1402.868,934.455 
	1271.783,1065.541 "/>
<rect x="1290.117" y="1071.106" transform="matrix(-0.7071 0.7071 -0.7071 -0.7071 3089.2219 969.8595)" opacity="0.9" fill="#4CAEDE" enable-background="new    " width="107.256" height="107.257"/>
<polygon opacity="0.4" fill="#4CAEDE" enable-background="new    " points="1258.157,728.623 1305.394,681.387 1352.632,728.623 
	1305.394,775.85 "/>
<polygon opacity="0.3" fill="#4CAEDE" enable-background="new    " points="953.404,375.181 1070.512,258.069 1187.618,375.181 
	1070.512,492.276 "/>
<rect x="1118.44" y="467.985" transform="matrix(-0.7071 0.7071 -0.7071 -0.7071 2363.3987 59.0687)" opacity="0.9" fill="#4CAEDE" enable-background="new    " width="102.051" height="102.051"/>
<polygon opacity="0.7" fill="#4CAEDE" enable-background="new    " points="1135.467,264.182 1179.436,220.213 1223.404,264.182 
	1179.436,308.146 "/>
<polygon opacity="0.8" fill="#4CAEDE" enable-background="new    " points="986.746,203.313 1032.104,157.962 1077.459,203.313 
	1032.104,248.669 "/>
<rect x="978.947" y="513.117" transform="matrix(-0.7071 0.7071 -0.7071 -0.7071 2114.8965 217.2342)" opacity="0.5" fill="#4CAEDE" enable-background="new    " width="67.02" height="67.02"/>
<polygon opacity="0.3" fill="#4CAEDE" enable-background="new    " points="877.34,179.965 906.191,151.12 935.041,179.965 
	906.191,208.815 "/>
<polygon opacity="0.7" fill="#4CAEDE" enable-background="new    " points="1070.512,752.812 1114.48,708.843 1158.449,752.812 
	1114.48,796.775 "/>
<polygon opacity="0.3" fill="#4CAEDE" enable-background="new    " points="932.031,708.84 960.883,679.996 989.732,708.84 
	960.883,737.69 "/>
</svg>
