<?xml version="1.0" encoding="utf-8"?>
<!-- Generator: Adobe Illustrator 18.1.1, SVG Export Plug-In . SVG Version: 6.00 Build 0)  -->
<svg version="1.1" xmlns="http://www.w3.org/2000/svg" xmlns:xlink="http://www.w3.org/1999/xlink" x="0px" y="0px"
	 viewBox="-599 181 720 720" enable-background="new -599 181 720 720" xml:space="preserve">
<g id="Layer_2">
	<rect x="-599" y="181" fill="#F3645C" width="720" height="720"/>
</g>
<g id="Layer_1">
	<polygon fill="#FFFFFF" points="-368.4,261.7 -368.4,348.1 -390,348.1 -390,261.7 -508.8,261.7 -508.8,520.8 -390,520.8 
		-390,434.5 -368.4,434.5 -368.4,520.8 -249.7,520.8 -249.7,261.7 	"/>
	<polygon fill="#FFFFFF" points="-228.1,520.8 -98.5,261.7 31,520.8 	"/>
	<polygon fill="#FFFFFF" points="-228.3,809.5 -228.3,550.4 30.8,550.4 -44.8,679.9 30.8,809.5 	"/>
	<path fill="#FFFFFF" d="M-303.9,679.9l50.7-79.8c-25.3-36.6-67.6-60.6-115.5-60.6c-77.5,0-140.3,62.8-140.3,140.3
		c0,77.5,62.8,140.3,140.3,140.3c47.9,0,90.1-24,115.5-60.6L-303.9,679.9z"/>
</g>
</svg>
