<?xml version="1.0" encoding="utf-8"?>
<!-- Generator: Adobe Illustrator 18.1.1, SVG Export Plug-In . SVG Version: 6.00 Build 0)  -->
<svg version="1.1" id="Layer_1" xmlns="http://www.w3.org/2000/svg" xmlns:xlink="http://www.w3.org/1999/xlink" x="0px" y="0px"
	 viewBox="0 0 455 142.8" enable-background="new 0 0 455 142.8" xml:space="preserve">
<polygon fill="#5082C2" points="67.8,19.4 67.8,54.3 59.1,54.3 59.1,19.4 11,19.4 11,124.3 59.1,124.3 59.1,89.3 67.8,89.3 
	67.8,124.3 115.9,124.3 115.9,19.4 "/>
<polygon fill="#5082C2" points="127,124 179.1,19.7 231.3,124 "/>
<path fill="#5082C2" d="M312.6,71.8l20.7-32.5c-10.3-14.9-27.6-24.7-47.1-24.7c-31.6,0-57.2,25.6-57.2,57.2
	c0,31.6,25.6,57.2,57.2,57.2c19.5,0,36.7-9.8,47.1-24.7L312.6,71.8z"/>
<polygon fill="#5082C2" points="345.4,124 345.4,19.7 449.7,19.7 419.3,71.8 449.7,124 "/>
</svg>
