<?xml version="1.0" encoding="utf-8"?>
<!-- Generator: Adobe Illustrator 18.1.1, SVG Export Plug-In . SVG Version: 6.00 Build 0)  -->
<svg version="1.1" id="Layer_1" xmlns="http://www.w3.org/2000/svg" xmlns:xlink="http://www.w3.org/1999/xlink" x="0px" y="0px"
	 viewBox="0 0 949.8 1000" enable-background="new 0 0 949.8 1000" xml:space="preserve">
<g>
	<polygon fill="#473B97" points="247.2,0 247.2,151.8 209.2,151.8 209.2,0 0.4,0 0.4,455.8 209.2,455.8 209.2,303.8 247.2,303.8 
		247.2,455.8 456,455.8 456,0 	"/>
	<polygon fill="#473B97" points="494.1,455.8 721.9,0 949.8,455.8 	"/>
	<g>
		<polygon fill="#473B97" points="493.7,982.4 493.7,526.7 949.4,526.7 816.5,754.5 949.4,982.4 		"/>
		<path fill="#473B97" d="M360.8,754.5l89.1-140.3C405.3,549.7,331,507.6,246.8,507.6C110.5,507.6,0,618.2,0,754.5
			s110.5,246.8,246.8,246.8c84.1,0,158.5-42.2,203.1-106.5L360.8,754.5z"/>
	</g>
</g>
</svg>
