<?xml version="1.0" encoding="utf-8"?>
<!-- Generator: Adobe Illustrator 16.0.0, SVG Export Plug-In . SVG Version: 6.00 Build 0)  -->
<!DOCTYPE svg PUBLIC "-//W3C//DTD SVG 1.1//EN" "http://www.w3.org/Graphics/SVG/1.1/DTD/svg11.dtd">
<svg version="1.1" id="Layer_1" xmlns="http://www.w3.org/2000/svg" xmlns:xlink="http://www.w3.org/1999/xlink" x="0px" y="0px"
	 width="720px" height="720px" viewBox="0 0 720 720" enable-background="new 0 0 720 720" xml:space="preserve">
<g>
	<polygon fill="#FFFFFF" points="199.321,17.977 199.321,124.521 172.685,124.521 172.685,17.977 26.186,17.977 26.186,337.61 
		172.685,337.61 172.685,231.066 199.321,231.066 199.321,337.61 345.819,337.61 345.819,17.977 	"/>
	<polygon fill="#FFFFFF" points="372.456,337.61 532.272,17.977 692.089,337.61 	"/>
	<g>
		<polygon fill="#FFFFFF" points="372.181,693.705 372.181,374.071 691.815,374.071 598.589,533.889 691.815,693.705 		"/>
		<path fill="#FFFFFF" d="M278.955,533.889l62.531-98.426c-31.248-45.137-83.387-74.709-142.44-74.709
			c-95.62,0-173.135,77.515-173.135,173.135c0,95.619,77.515,173.135,173.135,173.135c59.053,0,111.192-29.572,142.44-74.709
			L278.955,533.889z"/>
	</g>
</g>
</svg>
