<?xml version="1.0" encoding="utf-8"?>
<!-- Generator: Adobe Illustrator 18.1.1, SVG Export Plug-In . SVG Version: 6.00 Build 0)  -->
<svg version="1.1" id="Layer_1" xmlns="http://www.w3.org/2000/svg" xmlns:xlink="http://www.w3.org/1999/xlink" x="0px" y="0px"
	 viewBox="0 358 992 282" enable-background="new 0 358 992 282" xml:space="preserve">
<polygon fill="#4C82CC" points="149,385.7 149,462.4 129.9,462.4 129.9,385.7 24.2,385.7 24.2,616.3 129.9,616.3 129.9,539.3 
	149,539.3 149,616.3 254.7,616.3 254.7,385.7 "/>
<polygon fill="#4C82CC" points="279.1,615.6 393.6,386.4 508.4,615.6 "/>
<path fill="#4C82CC" d="M683,504.4l43.5-68.3c-21.6-31.3-58-51.9-99-51.9c-66.4,0-120.2,53.8-120.2,120.2s53.8,120.2,120.2,120.2
	c41,0,77.1-20.6,99-51.9L683,504.4z"/>
<polygon fill="#4C82CC" points="755.1,615.6 755.1,386.4 984.4,386.4 917.5,500.9 984.4,615.6 "/>
</svg>
