<?xml version="1.0" encoding="utf-8"?>
<!-- Generator: Adobe Illustrator 19.2.0, SVG Export Plug-In . SVG Version: 6.00 Build 0)  -->
<!DOCTYPE svg PUBLIC "-//W3C//DTD SVG 1.1//EN" "http://www.w3.org/Graphics/SVG/1.1/DTD/svg11.dtd">
<svg version="1.1" id="logo" xmlns="http://www.w3.org/2000/svg" xmlns:xlink="http://www.w3.org/1999/xlink" x="0px" y="0px"
	 viewBox="0 0 1000 1000" style="enable-background:new 0 0 1000 1000;" xml:space="preserve">
<style type="text/css">
	.st0{fill:#0B3B4B;}
	.st1{display:none;}
	.st2{display:inline;}
	.st3{display:inline;clip-path:url(#SVGID_2_);}
	.st4{fill:#FFFFFF;}
</style>
<g id="color">
	<g>
		<path class="st0" d="M470.7,114v343.1H328.6V347.4c0-7.7-6.3-14-14-14h-30.9c-7.7,0-14,6.3-14,14v109.7h-142V114h142v109.7
			c0,7.7,6.3,14,14,14h30.9c7.7,0,14-6.3,14-14V114H470.7 M484.7,100H314.6v123.7h-30.9V100h-170v371.1h170V347.4h30.9v123.7h170.2
			V100L484.7,100z"/>
	</g>
	<g>
		<path class="st0" d="M701.2,131.3L864,457.1H538.3L701.2,131.3 M701.2,100L515.7,471.1h371L701.2,100L701.2,100z"/>
	</g>
	<g>
		<path class="st0" d="M862,527.5L766.1,692c-2.5,4.4-2.5,9.7,0,14.1L862,870.5H529.3v-343H862 M886.4,513.5H515.3v371h371.1
			L778.2,699L886.4,513.5L886.4,513.5z"/>
	</g>
	<g>
		<path class="st0" d="M314.3,512.1c30.8,0,61.3,7.6,88.2,22c23.4,12.5,44.1,30.1,60.2,51.2l-67.5,106.2c-2.9,4.6-2.9,10.4,0,15
			l67.5,106.2c-16.2,21.1-36.8,38.7-60.2,51.2c-26.9,14.4-57.4,22-88.2,22c-50,0-96.9-19.4-132.2-54.7
			c-35.3-35.3-54.7-82.3-54.7-132.2c0-50,19.4-96.9,54.7-132.2C217.4,531.5,264.3,512.1,314.3,512.1 M314.3,498.1
			c-111,0-201,89.9-201,201c0,111,89.9,201,201,201c68.6,0,129.1-34.3,165.4-86.7L407.1,699l72.6-114.3
			C443.4,532.4,382.9,498.1,314.3,498.1L314.3,498.1z"/>
	</g>
</g>
<g id="inner_shadow" class="st1">
	<defs>
		<path id="SVGID_1_" d="M484.7,100v371.1H314.6V347.4h-30.9v123.7h-170V100h170v123.7h30.9V100H484.7z M886.7,471.1L701.2,100
			L515.7,471.1H886.7z M886.4,884.5L778.2,699l108.2-185.6H515.3v371H886.4z M407.1,699l72.6-114.3c-36.2-52.4-96.8-86.7-165.4-86.7
			c-111,0-201,89.9-201,201s89.9,201,201,201c68.6,0,129.1-34.3,165.4-86.7L407.1,699z"/>
	</defs>
	<clipPath id="SVGID_2_" class="st2">
		<use xlink:href="#SVGID_1_"  style="overflow:visible;"/>
	</clipPath>
	<g class="st3">
		
			<image style="overflow:visible;opacity:0.55;" width="1018" height="1018" xlink:href="BF60D3B346966627.png"  transform="matrix(1 0 0 1 -23 7)">
		</image>
		<g>
			<path class="st4" d="M0,0v1000h1000V0H0z M479.7,813.3c-36.2,52.4-96.8,86.7-165.4,86.7c-111,0-201-89.9-201-201
				s89.9-201,201-201c68.6,0,129.1,34.3,165.4,86.7L407.1,699L479.7,813.3z M485,471H315V347h-31v124H114V100h170v124h31V100h170
				V471z M886.4,884H515V513h371.4L778.2,698.6L886.4,884z M515.7,471L701.2,99.9L886.7,471H515.7z"/>
		</g>
	</g>
</g>
</svg>
