<?xml version="1.0" encoding="utf-8"?>
<!-- Generator: Adobe Illustrator 19.2.0, SVG Export Plug-In . SVG Version: 6.00 Build 0)  -->
<!DOCTYPE svg PUBLIC "-//W3C//DTD SVG 1.1//EN" "http://www.w3.org/Graphics/SVG/1.1/DTD/svg11.dtd">
<svg version="1.1" id="logo" xmlns="http://www.w3.org/2000/svg" xmlns:xlink="http://www.w3.org/1999/xlink" x="0px" y="0px"
	 viewBox="0 0 1000 1000" style="enable-background:new 0 0 1000 1000;" xml:space="preserve">
<style type="text/css">
	.st0{fill:#FC5454;}
	.st1{fill:#4ECDC4;}
	.st2{fill:#FFE86B;}
	.st3{fill:#C9D41B;}
	.st4{clip-path:url(#SVGID_2_);}
	.st5{fill:#FFFFFF;}
</style>
<g id="color">
	<g>
		<polygon class="st0" points="314.6,100 314.6,223.7 283.6,223.7 283.6,100 113.6,100 113.6,471.1 283.6,471.1 283.6,347.4 
			314.6,347.4 314.6,471.1 484.7,471.1 484.7,100 		"/>
	</g>
	<g>
		<polygon class="st1" points="515.7,471.1 701.2,100 886.7,471.1 		"/>
	</g>
	<g>
		<polygon class="st2" points="515.3,884.5 515.3,513.5 886.4,513.5 778.2,699 886.4,884.5 		"/>
	</g>
	<g>
		<path class="st3" d="M407.1,699l72.6-114.3c-36.2-52.4-96.8-86.7-165.4-86.7c-111,0-201,89.9-201,201s89.9,201,201,201
			c68.6,0,129.1-34.3,165.4-86.7L407.1,699z"/>
	</g>
</g>
<g id="inner_shadow">
	<defs>
		<path id="SVGID_1_" d="M484.7,100v371.1H314.6V347.4h-30.9v123.7h-170V100h170v123.7h30.9V100H484.7z M886.7,471.1L701.2,100
			L515.7,471.1H886.7z M886.4,884.5L778.2,699l108.2-185.6H515.3v371H886.4z M407.1,699l72.6-114.3c-36.2-52.4-96.8-86.7-165.4-86.7
			c-111,0-201,89.9-201,201s89.9,201,201,201c68.6,0,129.1-34.3,165.4-86.7L407.1,699z"/>
	</defs>
	<clipPath id="SVGID_2_">
		<use xlink:href="#SVGID_1_"  style="overflow:visible;"/>
	</clipPath>
	<g class="st4">
		
			<image style="overflow:visible;opacity:0.55;" width="1018" height="1018" xlink:href="5A683E3BFB0972DC.png"  transform="matrix(1 0 0 1 -23 7)">
		</image>
		<g>
			<path class="st5" d="M0,0v1000h1000V0H0z M479.7,813.3c-36.2,52.4-96.8,86.7-165.4,86.7c-111,0-201-89.9-201-201
				s89.9-201,201-201c68.6,0,129.1,34.3,165.4,86.7L407.1,699L479.7,813.3z M485,471H315V347h-31v124H114V100h170v124h31V100h170
				V471z M886.4,884H515V513h371.4L778.2,698.6L886.4,884z M515.7,471L701.2,99.9L886.7,471H515.7z"/>
		</g>
	</g>
</g>
</svg>
