<?xml version="1.0" encoding="utf-8"?>
<!-- Generator: Adobe Illustrator 16.0.0, SVG Export Plug-In . SVG Version: 6.00 Build 0)  -->
<!DOCTYPE svg PUBLIC "-//W3C//DTD SVG 1.1//EN" "http://www.w3.org/Graphics/SVG/1.1/DTD/svg11.dtd">
<svg version="1.1" id="Layer_1" xmlns="http://www.w3.org/2000/svg" xmlns:xlink="http://www.w3.org/1999/xlink" x="0px" y="0px"
	 width="787.461px" height="358.463px" viewBox="0 0 787.461 358.463" enable-background="new 0 0 787.461 358.463"
	 xml:space="preserve">
<g enable-background="new    ">
	<path fill="#473899" d="M80.668,333.538c4.344,0,8.539-0.319,12.588-0.963c4.047-0.641,7.257-1.308,9.626-1.999v18.808
		c-2.666,1.284-6.59,2.344-11.773,3.184c-5.183,0.838-9.848,1.259-13.994,1.259c-31.395,0-47.093-16.535-47.093-49.61v-96.555H6.771
		v-11.848l23.25-10.218l10.366-34.653h14.217v37.615h47.093v19.104H54.604v95.519c0,9.773,2.318,17.277,6.96,22.509
		C66.204,330.923,72.572,333.538,80.668,333.538z"/>
	<path fill="#473899" d="M203.88,353.826c-23.991,0-42.923-7.305-56.793-21.917c-13.872-14.61-20.807-34.898-20.807-60.865
		c0-26.161,6.442-46.945,19.326-62.346c12.884-15.402,30.185-23.103,51.905-23.103c20.337,0,36.43,6.689,48.277,20.066
		c11.847,13.379,17.771,31.024,17.771,52.942v15.549H151.752c0.493,19.056,5.306,33.52,14.438,43.391
		c9.131,9.873,21.991,14.809,38.578,14.809c17.475,0,34.75-3.651,51.831-10.958v21.917c-8.688,3.753-16.908,6.442-24.657,8.071
		C224.191,353.012,214.838,353.826,203.88,353.826z M197.216,206.181c-13.032,0-23.424,4.246-31.173,12.735
		c-7.752,8.492-12.317,20.239-13.699,35.245H237.2c0-15.498-3.457-27.371-10.367-35.615
		C219.922,210.304,210.049,206.181,197.216,206.181z"/>
	<path fill="#473899" d="M370.333,353.826c-23.498,0-41.688-7.231-54.571-21.695c-12.884-14.462-19.326-34.924-19.326-61.384
		c0-27.148,6.539-48.129,19.622-62.938c13.08-14.809,31.714-22.214,55.904-22.214c7.798,0,15.598,0.84,23.397,2.518
		c7.798,1.68,13.921,3.653,18.363,5.924l-7.553,20.88c-5.431-2.17-11.354-3.973-17.771-5.404c-6.419-1.43-12.095-2.147-17.03-2.147
		c-32.976,0-49.462,21.028-49.462,63.086c0,19.943,4.021,35.246,12.069,45.908c8.045,10.662,19.967,15.993,35.764,15.993
		c13.524,0,27.396-2.91,41.613-8.737v21.77C400.492,351.013,386.819,353.826,370.333,353.826z"/>
	<path fill="#473899" d="M560.925,350.864V245.868c0-13.229-3.013-23.102-9.034-29.617c-6.022-6.517-15.452-9.774-28.285-9.774
		c-17.081,0-29.544,4.642-37.393,13.921c-7.849,9.281-11.773,24.485-11.773,45.611v84.855h-24.583V120.436h24.583v69.75
		c0,8.393-0.396,15.354-1.185,20.881h1.481c4.836-7.798,11.722-13.943,20.658-18.438c8.934-4.491,19.127-6.738,30.58-6.738
		c19.845,0,34.728,4.717,44.649,14.143c9.922,9.43,14.883,24.412,14.883,44.945v105.885H560.925z"/>
</g>
<g enable-background="new    ">
	<path fill="#473899" d="M667.549,266.305L614.236,185.3h51.24l32.135,52.72l32.432-52.72h51.239l-53.904,81.005l56.422,84.56
		h-51.387l-34.802-56.719l-34.949,56.719h-51.238L667.549,266.305z"/>
</g>
<g enable-background="new    ">
	<path fill="#473899" d="M134.619,83.159c-3.727,0-7.13-0.688-10.212-2.063c-3.082-1.375-5.667-3.491-7.757-6.347h-0.626
		c0.417,3.343,0.626,6.513,0.626,9.507v23.558h-8.671V24.864h7.052l1.201,7.836h0.418c2.229-3.135,4.823-5.397,7.783-6.791
		c2.959-1.393,6.354-2.089,10.186-2.089c7.591,0,13.45,2.594,17.577,7.782c4.127,5.189,6.19,12.468,6.19,21.835
		c0,9.402-2.098,16.707-6.294,21.912C147.895,80.557,142.07,83.159,134.619,83.159z M133.365,31.185
		c-5.85,0-10.082,1.62-12.693,4.858c-2.612,3.238-3.953,8.393-4.022,15.462v1.933c0,8.044,1.34,13.799,4.022,17.264
		c2.681,3.465,6.981,5.197,12.902,5.197c4.944,0,8.819-2.002,11.623-6.007c2.803-4.005,4.205-9.524,4.205-16.559
		c0-7.139-1.402-12.615-4.205-16.429C142.393,33.092,138.449,31.185,133.365,31.185z"/>
	<path fill="#473899" d="M222.947,53.438c0,9.333-2.351,16.619-7.052,21.86s-11.196,7.861-19.483,7.861
		c-5.119,0-9.663-1.201-13.633-3.604c-3.971-2.402-7.035-5.851-9.193-10.343c-2.16-4.492-3.239-9.75-3.239-15.774
		c0-9.332,2.333-16.603,7-21.809c4.666-5.205,11.143-7.809,19.432-7.809c8.009,0,14.372,2.663,19.092,7.991
		C220.588,37.14,222.947,44.349,222.947,53.438z M179.331,53.438c0,7.312,1.463,12.885,4.388,16.715
		c2.926,3.831,7.226,5.746,12.902,5.746c5.676,0,9.985-1.907,12.929-5.72c2.941-3.813,4.413-9.394,4.413-16.741
		c0-7.278-1.472-12.806-4.413-16.585c-2.943-3.778-7.287-5.668-13.033-5.668c-5.677,0-9.96,1.864-12.85,5.59
		C180.776,40.501,179.331,46.055,179.331,53.438z"/>
	<path fill="#473899" d="M284.898,82.114l-10.499-33.587c-0.662-2.055-1.898-6.721-3.708-13.999h-0.418
		c-1.394,6.094-2.612,10.795-3.657,14.104l-10.812,33.482h-10.029l-15.618-57.25h9.089c3.691,14.383,6.504,25.334,8.437,32.856
		c1.933,7.521,3.037,12.589,3.316,15.2h0.418c0.383-1.985,1.001-4.553,1.854-7.705c0.853-3.15,1.593-5.649,2.22-7.495l10.5-32.856
		h9.402l10.237,32.856c1.95,5.989,3.273,11.021,3.97,15.096h0.418c0.139-1.254,0.514-3.187,1.123-5.798
		c0.609-2.612,4.239-16.663,10.892-42.154h8.984l-15.827,57.25H284.898z"/>
	<path fill="#473899" d="M345.544,83.159c-8.462,0-15.14-2.577-20.032-7.731c-4.893-5.153-7.339-12.31-7.339-21.468
		c0-9.229,2.272-16.559,6.816-21.991c4.545-5.433,10.647-8.148,18.309-8.148c7.174,0,12.851,2.359,17.029,7.077
		c4.179,4.72,6.268,10.943,6.268,18.675v5.484h-39.438c0.174,6.721,1.872,11.823,5.093,15.305c3.221,3.482,7.758,5.224,13.607,5.224
		c6.164,0,12.258-1.288,18.282-3.865v7.73c-3.064,1.324-5.964,2.272-8.697,2.847C352.709,82.872,349.409,83.159,345.544,83.159z
		 M343.193,31.08c-4.597,0-8.262,1.498-10.995,4.493c-2.734,2.995-4.345,7.139-4.832,12.432h29.931
		c0-5.467-1.219-9.654-3.656-12.562C351.203,32.535,347.72,31.08,343.193,31.08z"/>
	<path fill="#473899" d="M407.494,23.82c2.542,0,4.823,0.209,6.843,0.626l-1.201,8.045c-2.368-0.522-4.458-0.784-6.268-0.784
		c-4.632,0-8.593,1.881-11.884,5.642s-4.937,8.445-4.937,14.052v30.714h-8.671v-57.25h7.156l0.992,10.604h0.418
		c2.124-3.727,4.684-6.6,7.679-8.619C400.616,24.83,403.907,23.82,407.494,23.82z"/>
	<path fill="#473899" d="M449.23,83.159c-8.462,0-15.14-2.577-20.032-7.731c-4.893-5.153-7.339-12.31-7.339-21.468
		c0-9.229,2.272-16.559,6.816-21.991c4.545-5.433,10.647-8.148,18.309-8.148c7.174,0,12.851,2.359,17.029,7.077
		c4.179,4.72,6.268,10.943,6.268,18.675v5.484h-39.438c0.174,6.721,1.872,11.823,5.093,15.305c3.221,3.482,7.758,5.224,13.607,5.224
		c6.164,0,12.258-1.288,18.282-3.865v7.73c-3.064,1.324-5.964,2.272-8.697,2.847C456.396,82.872,453.096,83.159,449.23,83.159z
		 M446.88,31.08c-4.597,0-8.262,1.498-10.995,4.493c-2.734,2.995-4.345,7.139-4.832,12.432h29.931c0-5.467-1.219-9.654-3.656-12.562
		C454.89,32.535,451.406,31.08,446.88,31.08z"/>
	<path fill="#473899" d="M524.031,74.436h-0.471c-4.005,5.816-9.995,8.724-17.969,8.724c-7.487,0-13.312-2.56-17.473-7.679
		s-6.242-12.396-6.242-21.834c0-9.437,2.09-16.768,6.269-21.991s9.994-7.835,17.446-7.835c7.766,0,13.72,2.82,17.864,8.462h0.68
		l-0.366-4.127l-0.209-4.022V0.836h8.671v81.278h-7.052L524.031,74.436z M506.688,75.898c5.92,0,10.212-1.61,12.876-4.832
		c2.664-3.221,3.996-8.418,3.996-15.592v-1.828c0-8.114-1.35-13.903-4.048-17.368c-2.699-3.465-7.009-5.198-12.929-5.198
		c-5.084,0-8.976,1.978-11.674,5.929c-2.699,3.953-4.049,9.533-4.049,16.742c0,7.312,1.341,12.832,4.022,16.559
		C497.564,74.036,501.5,75.898,506.688,75.898z"/>
	<path fill="#473899" d="M605.048,23.925c7.522,0,13.363,2.568,17.525,7.704c4.16,5.137,6.242,12.406,6.242,21.809
		s-2.099,16.707-6.295,21.912c-4.196,5.207-10.021,7.81-17.473,7.81c-3.727,0-7.13-0.688-10.212-2.063s-5.667-3.491-7.757-6.347
		h-0.627l-1.828,7.365h-6.216V0.836h8.671v19.745c0,4.423-0.14,8.393-0.418,11.91h0.418
		C591.118,26.78,597.108,23.925,605.048,23.925z M603.795,31.185c-5.921,0-10.187,1.698-12.798,5.094
		c-2.612,3.395-3.918,9.114-3.918,17.159c0,8.044,1.34,13.799,4.022,17.264c2.681,3.465,6.981,5.197,12.902,5.197
		c5.327,0,9.298-1.941,11.909-5.824s3.918-9.463,3.918-16.741c0-7.452-1.307-13.007-3.918-16.663S609.261,31.185,603.795,31.185z"/>
	<path fill="#473899" d="M634.874,24.864h9.298l12.536,32.647c2.751,7.452,4.457,12.832,5.119,16.141h0.418
		c0.452-1.776,1.401-4.813,2.847-9.115c1.445-4.301,6.172-17.524,14.182-39.673h9.298l-24.603,65.189
		c-2.438,6.442-5.284,11.013-8.54,13.712c-3.257,2.698-7.253,4.048-11.988,4.048c-2.646,0-5.259-0.296-7.835-0.888v-6.947
		c1.915,0.418,4.057,0.627,6.425,0.627c5.955,0,10.203-3.343,12.745-10.029l3.187-8.148L634.874,24.864z"/>
</g>
</svg>
