<?xml version="1.0" encoding="utf-8"?>
<!-- Generator: Adobe Illustrator 18.1.1, SVG Export Plug-In . SVG Version: 6.00 Build 0)  -->
<svg version="1.1" id="Layer_1" xmlns="http://www.w3.org/2000/svg" xmlns:xlink="http://www.w3.org/1999/xlink" x="0px" y="0px"
	 viewBox="-105 321.5 787.5 358.5" enable-background="new -105 321.5 787.5 358.5" xml:space="preserve">
<g enable-background="new    ">
	<path fill="#FFFFFF" d="M-24.3,655.1c4.3,0,8.5-0.3,12.6-1c4-0.6,7.3-1.3,9.6-2v18.8c-2.7,1.3-6.6,2.3-11.8,3.2
		c-5.2,0.8-9.8,1.3-14,1.3c-31.4,0-47.1-16.5-47.1-49.6v-96.6h-23.2v-11.8l23.2-10.2l10.4-34.7h14.2v37.6h47.1v19.1h-47.1v95.5
		c0,9.8,2.3,17.3,7,22.5C-38.8,652.5-32.4,655.1-24.3,655.1z"/>
	<path fill="#FFFFFF" d="M98.9,675.4c-24,0-42.9-7.3-56.8-21.9c-13.9-14.6-20.8-34.9-20.8-60.9c0-26.2,6.4-46.9,19.3-62.3
		s30.2-23.1,51.9-23.1c20.3,0,36.4,6.7,48.3,20.1c11.8,13.4,17.8,31,17.8,52.9v15.5H46.8c0.5,19.1,5.3,33.5,14.4,43.4
		c9.1,9.9,22,14.8,38.6,14.8c17.5,0,34.8-3.7,51.8-11v21.9c-8.7,3.8-16.9,6.4-24.7,8.1C119.2,674.5,109.8,675.4,98.9,675.4z
		 M92.2,527.7c-13,0-23.4,4.2-31.2,12.7c-7.8,8.5-12.3,20.2-13.7,35.2h84.9c0-15.5-3.5-27.4-10.4-35.6
		C114.9,531.8,105,527.7,92.2,527.7z"/>
	<path fill="#FFFFFF" d="M265.3,675.4c-23.5,0-41.7-7.2-54.6-21.7c-12.9-14.5-19.3-34.9-19.3-61.4c0-27.1,6.5-48.1,19.6-62.9
		c13.1-14.8,31.7-22.2,55.9-22.2c7.8,0,15.6,0.8,23.4,2.5c7.8,1.7,13.9,3.7,18.4,5.9l-7.6,20.9c-5.4-2.2-11.4-4-17.8-5.4
		c-6.4-1.4-12.1-2.1-17-2.1c-33,0-49.5,21-49.5,63.1c0,19.9,4,35.2,12.1,45.9c8,10.7,20,16,35.8,16c13.5,0,27.4-2.9,41.6-8.7v21.8
		C295.5,672.5,281.8,675.4,265.3,675.4z"/>
	<path fill="#FFFFFF" d="M455.9,672.4v-105c0-13.2-3-23.1-9-29.6c-6-6.5-15.5-9.8-28.3-9.8c-17.1,0-29.5,4.6-37.4,13.9
		c-7.8,9.3-11.8,24.5-11.8,45.6v84.9h-24.6V442h24.6v69.8c0,8.4-0.4,15.4-1.2,20.9h1.5c4.8-7.8,11.7-13.9,20.7-18.4
		c8.9-4.5,19.1-6.7,30.6-6.7c19.8,0,34.7,4.7,44.6,14.1c9.9,9.4,14.9,24.4,14.9,44.9v105.9H455.9z"/>
</g>
<g enable-background="new    ">
	<path fill="#FFFFFF" d="M562.5,587.8l-53.3-81h51.2l32.1,52.7l32.4-52.7h51.2l-53.9,81l56.4,84.6h-51.4l-34.8-56.7l-34.9,56.7
		h-51.2L562.5,587.8z"/>
</g>
<g enable-background="new    ">
	<path fill="#FFFFFF" d="M29.6,404.7c-3.7,0-7.1-0.7-10.2-2.1c-3.1-1.4-5.7-3.5-7.8-6.3H11c0.4,3.3,0.6,6.5,0.6,9.5v23.6H3v-82.9H10
		l1.2,7.8h0.4c2.2-3.1,4.8-5.4,7.8-6.8c3-1.4,6.4-2.1,10.2-2.1c7.6,0,13.5,2.6,17.6,7.8c4.1,5.2,6.2,12.5,6.2,21.8
		c0,9.4-2.1,16.7-6.3,21.9C42.9,402.1,37.1,404.7,29.6,404.7z M28.4,352.7c-5.9,0-10.1,1.6-12.7,4.9c-2.6,3.2-4,8.4-4,15.5v1.9
		c0,8,1.3,13.8,4,17.3c2.7,3.5,7,5.2,12.9,5.2c4.9,0,8.8-2,11.6-6c2.8-4,4.2-9.5,4.2-16.6c0-7.1-1.4-12.6-4.2-16.4
		C37.4,354.6,33.4,352.7,28.4,352.7z"/>
	<path fill="#FFFFFF" d="M117.9,375c0,9.3-2.4,16.6-7.1,21.9s-11.2,7.9-19.5,7.9c-5.1,0-9.7-1.2-13.6-3.6c-4-2.4-7-5.9-9.2-10.3
		c-2.2-4.5-3.2-9.8-3.2-15.8c0-9.3,2.3-16.6,7-21.8c4.7-5.2,11.1-7.8,19.4-7.8c8,0,14.4,2.7,19.1,8
		C115.6,358.7,117.9,365.9,117.9,375z M74.3,375c0,7.3,1.5,12.9,4.4,16.7c2.9,3.8,7.2,5.7,12.9,5.7c5.7,0,10-1.9,12.9-5.7
		c2.9-3.8,4.4-9.4,4.4-16.7c0-7.3-1.5-12.8-4.4-16.6c-2.9-3.8-7.3-5.7-13-5.7c-5.7,0-10,1.9-12.8,5.6C75.8,362,74.3,367.6,74.3,375z
		"/>
	<path fill="#FFFFFF" d="M179.9,403.7l-10.5-33.6c-0.7-2.1-1.9-6.7-3.7-14h-0.4c-1.4,6.1-2.6,10.8-3.7,14.1l-10.8,33.5h-10
		l-15.6-57.2h9.1c3.7,14.4,6.5,25.3,8.4,32.9c1.9,7.5,3,12.6,3.3,15.2h0.4c0.4-2,1-4.6,1.9-7.7c0.9-3.2,1.6-5.6,2.2-7.5l10.5-32.9
		h9.4l10.2,32.9c1.9,6,3.3,11,4,15.1h0.4c0.1-1.3,0.5-3.2,1.1-5.8c0.6-2.6,4.2-16.7,10.9-42.2h9l-15.8,57.2H179.9z"/>
	<path fill="#FFFFFF" d="M240.5,404.7c-8.5,0-15.1-2.6-20-7.7c-4.9-5.2-7.3-12.3-7.3-21.5c0-9.2,2.3-16.6,6.8-22s10.6-8.1,18.3-8.1
		c7.2,0,12.8,2.4,17,7.1c4.2,4.7,6.3,10.9,6.3,18.7v5.5h-39.4c0.2,6.7,1.9,11.8,5.1,15.3c3.2,3.5,7.8,5.2,13.6,5.2
		c6.2,0,12.3-1.3,18.3-3.9v7.7c-3.1,1.3-6,2.3-8.7,2.8C247.7,404.4,244.4,404.7,240.5,404.7z M238.2,352.6c-4.6,0-8.3,1.5-11,4.5
		c-2.7,3-4.3,7.1-4.8,12.4h29.9c0-5.5-1.2-9.7-3.7-12.6C246.2,354.1,242.7,352.6,238.2,352.6z"/>
	<path fill="#FFFFFF" d="M302.5,345.4c2.5,0,4.8,0.2,6.8,0.6l-1.2,8c-2.4-0.5-4.5-0.8-6.3-0.8c-4.6,0-8.6,1.9-11.9,5.6
		s-4.9,8.4-4.9,14.1v30.7h-8.7v-57.2h7.2l1,10.6h0.4c2.1-3.7,4.7-6.6,7.7-8.6S298.9,345.4,302.5,345.4z"/>
	<path fill="#FFFFFF" d="M344.2,404.7c-8.5,0-15.1-2.6-20-7.7c-4.9-5.2-7.3-12.3-7.3-21.5c0-9.2,2.3-16.6,6.8-22
		c4.5-5.4,10.6-8.1,18.3-8.1c7.2,0,12.8,2.4,17,7.1c4.2,4.7,6.3,10.9,6.3,18.7v5.5h-39.4c0.2,6.7,1.9,11.8,5.1,15.3
		c3.2,3.5,7.8,5.2,13.6,5.2c6.2,0,12.3-1.3,18.3-3.9v7.7c-3.1,1.3-6,2.3-8.7,2.8C351.4,404.4,348.1,404.7,344.2,404.7z M341.9,352.6
		c-4.6,0-8.3,1.5-11,4.5c-2.7,3-4.3,7.1-4.8,12.4H356c0-5.5-1.2-9.7-3.7-12.6C349.9,354.1,346.4,352.6,341.9,352.6z"/>
	<path fill="#FFFFFF" d="M419,396h-0.5c-4,5.8-10,8.7-18,8.7c-7.5,0-13.3-2.6-17.5-7.7c-4.2-5.1-6.2-12.4-6.2-21.8
		c0-9.4,2.1-16.8,6.3-22s10-7.8,17.4-7.8c7.8,0,13.7,2.8,17.9,8.5h0.7l-0.4-4.1l-0.2-4v-23.3h8.7v81.3h-7.1L419,396z M401.7,397.4
		c5.9,0,10.2-1.6,12.9-4.8c2.7-3.2,4-8.4,4-15.6v-1.8c0-8.1-1.3-13.9-4-17.4c-2.7-3.5-7-5.2-12.9-5.2c-5.1,0-9,2-11.7,5.9
		c-2.7,4-4,9.5-4,16.7c0,7.3,1.3,12.8,4,16.6C392.6,395.6,396.5,397.4,401.7,397.4z"/>
	<path fill="#FFFFFF" d="M500,345.5c7.5,0,13.4,2.6,17.5,7.7c4.2,5.1,6.2,12.4,6.2,21.8s-2.1,16.7-6.3,21.9
		c-4.2,5.2-10,7.8-17.5,7.8c-3.7,0-7.1-0.7-10.2-2.1s-5.7-3.5-7.8-6.3h-0.6l-1.8,7.4h-6.2v-81.3h8.7v19.7c0,4.4-0.1,8.4-0.4,11.9
		h0.4C486.1,348.3,492.1,345.5,500,345.5z M498.8,352.7c-5.9,0-10.2,1.7-12.8,5.1c-2.6,3.4-3.9,9.1-3.9,17.2c0,8,1.3,13.8,4,17.3
		c2.7,3.5,7,5.2,12.9,5.2c5.3,0,9.3-1.9,11.9-5.8s3.9-9.5,3.9-16.7c0-7.5-1.3-13-3.9-16.7S504.3,352.7,498.8,352.7z"/>
	<path fill="#FFFFFF" d="M529.9,346.4h9.3l12.5,32.6c2.8,7.5,4.5,12.8,5.1,16.1h0.4c0.5-1.8,1.4-4.8,2.8-9.1
		c1.4-4.3,6.2-17.5,14.2-39.7h9.3L559,411.6c-2.4,6.4-5.3,11-8.5,13.7c-3.3,2.7-7.3,4-12,4c-2.6,0-5.3-0.3-7.8-0.9v-6.9
		c1.9,0.4,4.1,0.6,6.4,0.6c6,0,10.2-3.3,12.7-10l3.2-8.1L529.9,346.4z"/>
</g>
</svg>
