<?xml version="1.0" encoding="utf-8"?>
<!-- Generator: Adobe Illustrator 16.0.0, SVG Export Plug-In . SVG Version: 6.00 Build 0)  -->
<!DOCTYPE svg PUBLIC "-//W3C//DTD SVG 1.1//EN" "http://www.w3.org/Graphics/SVG/1.1/DTD/svg11.dtd">
<svg version="1.1" id="Layer_1" xmlns="http://www.w3.org/2000/svg" xmlns:xlink="http://www.w3.org/1999/xlink" x="0px" y="0px"
	 width="128px" height="33.997px" viewBox="0 46.399 128 33.997" enable-background="new 0 46.399 128 33.997" xml:space="preserve"
	>
<polygon fill="#4C82CC" points="18.154,48.684 18.154,58.581 15.69,58.581 15.69,48.684 2.052,48.684 2.052,78.439 15.69,78.439 
	15.69,68.504 18.154,68.504 18.154,78.439 31.794,78.439 31.794,48.684 "/>
<polygon fill="#4C82CC" points="34.941,78.348 49.716,48.774 64.528,78.348 "/>
<path fill="#4C82CC" d="M87.058,64l5.613-8.812c-2.787-4.039-7.484-6.696-12.774-6.696c-8.567,0-15.51,6.941-15.51,15.509
	c0,8.569,6.942,15.51,15.51,15.51c5.29,0,9.948-2.658,12.774-6.697L87.058,64z"/>
<polygon fill="#4C82CC" points="96.36,78.348 96.36,48.774 125.948,48.774 117.315,63.548 125.948,78.348 "/>
</svg>
